<?xml version="1.0" encoding="UTF-8"?>
<svg id="Camada_2" data-name="Camada 2" xmlns="http://www.w3.org/2000/svg" viewBox="0 0 1917.64 395.29">
  <defs>
    <style>
      .cls-1 {
        fill: #b38b59;
      }

      .cls-2 {
        fill: #113e21;
      }
    </style>
  </defs>
  <g id="Camada_1-2" data-name="Camada 1">
    <g>
      <path class="cls-1" d="m393.31,24.13c-5.7,0-10.6,2.05-14.7,6.14-4.1,4.1-6.14,8.99-6.14,14.7s2.04,10.6,6.14,14.7c4.09,4.1,8.99,6.14,14.7,6.14s10.6-2.04,14.7-6.14,6.14-8.99,6.14-14.7-2.05-10.6-6.14-14.7c-4.1-4.09-8.99-6.14-14.7-6.14Z"/>
      <path class="cls-2" d="m1754.21,24.13c-5.7,0-10.6,2.05-14.7,6.14-4.1,4.1-6.14,8.99-6.14,14.7s2.04,10.6,6.14,14.7c4.09,4.1,8.99,6.14,14.7,6.14s10.6-2.04,14.7-6.14,6.14-8.99,6.14-14.7-2.05-10.6-6.14-14.7c-4.1-4.09-8.99-6.14-14.7-6.14Z"/>
      <g>
        <path class="cls-1" d="m166.28,122.84c-8.77-9.36-19.02-16.82-30.71-22.38-11.7-5.55-24.13-8.34-37.29-8.34-12,0-22.38,1.47-31.15,4.39-8.49,2.93-15.65,6.44-21.5,10.53-3.51,2.34-6.58,4.68-9.21,7.02l-6.14,6.14h0c0-13.57-11-24.57-24.57-24.57H0v299.65h2.82c15.16,0,27.45-12.29,27.45-27.45v-101.53l6.58,7.46c4.09,4.68,8.77,8.93,14.04,12.72,6.14,4.1,13.16,7.39,21.06,9.87,7.9,2.49,16.67,3.73,26.32,3.73,13.16,0,25.59-2.7,37.29-8.12,11.69-5.41,21.86-12.79,30.49-22.16,8.62-9.36,15.42-20.4,20.4-33.12,4.97-12.72,7.46-26.25,7.46-40.58s-2.49-27.78-7.46-40.36c-4.98-12.57-11.7-23.54-20.18-32.9Zm-7.9,102.22c-3.51,9.07-8.34,17.04-14.48,23.91-6.14,6.88-13.31,12.22-21.5,16.01-8.19,3.8-16.82,5.7-25.88,5.7s-17.7-1.9-25.88-5.7c-8.19-3.8-15.36-9.14-21.5-16.01-6.14-6.87-11.04-14.84-14.7-23.91-3.66-9.06-5.48-18.71-5.48-28.96s1.82-19.96,5.48-29.18c3.65-9.21,8.56-17.18,14.7-23.91,6.14-6.73,13.31-11.99,21.5-15.79,8.19-3.8,16.82-5.7,25.88-5.7s17.69,1.91,25.88,5.7c8.19,3.8,15.36,9.07,21.5,15.79,6.14,7.02,10.97,15.07,14.48,24.13,3.51,9.07,5.26,18.72,5.26,28.96s-1.75,19.89-5.26,28.96Z"/>
        <path class="cls-1" d="m333.86,204.88c-5.85-4.97-12.65-9.43-20.4-13.38-7.75-3.95-16.6-7.24-26.54-9.87l-6.14-1.75c-3.51-.88-7.46-2.19-11.85-3.95-4.1-1.46-7.9-3.36-11.41-5.7-3.22-2.34-5.85-5.11-7.9-8.34-2.05-2.92-3.07-6.43-3.07-10.53s.8-7.9,2.41-11.41c1.6-3.51,3.87-6.58,6.8-9.21,3.21-2.63,6.87-4.68,10.97-6.14,4.39-1.17,9.21-1.75,14.48-1.75,3.21,0,7.82.95,13.82,2.85,5.99,1.91,10.75,3.88,14.26,5.92,5.26,2.93,10.53,4.39,15.79,4.39,6.72,0,13.16-2.63,19.3-7.9-1.17-2.63-3.15-5.48-5.92-8.56-2.78-3.07-6-6.07-9.65-8.99-3.66-2.92-7.09-5.26-10.31-7.02-11.12-5.85-23.55-8.77-37.29-8.77-9.36,0-17.99,1.32-25.88,3.95s-14.63,6.44-20.18,11.41c-5.56,5.26-9.8,11.41-12.72,18.43-3.22,6.73-4.83,14.48-4.83,23.25,0,7.02,1.46,13.31,4.39,18.86,3.51,6.73,8.48,12.72,14.92,17.99,5.55,4.68,11.69,8.77,18.43,12.28,7.02,3.22,14.04,5.85,21.06,7.9,5.55,1.47,11.11,3.22,16.67,5.26,5.55,2.05,10.53,4.54,14.92,7.46,4.39,2.63,7.9,5.85,10.53,9.65,2.63,3.8,3.95,8.05,3.95,12.72,0,5.26-1.32,9.8-3.95,13.6-2.63,3.8-6,7.02-10.09,9.65-4.39,2.63-9.07,4.54-14.04,5.7-4.98,1.17-9.65,1.75-14.04,1.75-8.77,0-18.43-4.67-28.96-14.04-5.56-5.26-11.7-7.9-18.43-7.9s-13.75,3.07-20.18,9.21c2.34,3.51,5.19,7.02,8.55,10.53,3.36,3.51,8.04,7.83,14.04,12.94,5.99,5.12,12.94,9.29,20.84,12.5,7.9,3.22,15.94,4.83,24.13,4.83,9.06,0,17.99-1.17,26.76-3.51,4.39-1.46,8.48-3.14,12.28-5.04,3.8-1.9,7.31-4.02,10.53-6.36,6.72-4.97,11.99-11.26,15.79-18.86,3.8-7.31,5.7-15.79,5.7-25.45.29-7.31-1.17-14.33-4.39-21.06-3.22-6.43-7.61-12.28-13.16-17.55Z"/>
        <path class="cls-1" d="m398.95,300.09h8.62V115.98c0-11.47-9.3-20.78-20.78-20.78h-8.62v184.11c0,11.47,9.3,20.78,20.78,20.78Z"/>
        <path class="cls-1" d="m487.19,145.88c6.29-6.87,13.74-12.21,22.38-16.01,8.62-3.8,18.06-5.7,28.3-5.7s19.15,1.91,27.64,5.7c7.9,3.22,14.18,4.83,18.86,4.83,8.19,0,15.79-4.09,22.81-12.28-.88-.88-1.61-1.6-2.19-2.19-9.36-7.9-19.67-14.11-30.93-18.65-11.26-4.53-23.47-6.8-36.63-6.8-14.63,0-28.01,2.71-40.14,8.12-12.14,5.42-22.75,12.8-31.81,22.16-9.07,9.36-16.09,20.48-21.06,33.34-4.98,12.58-7.46,26.04-7.46,40.36s2.48,28.08,7.46,40.36c4.97,12.87,11.99,24.06,21.06,33.56,9.06,9.51,19.67,16.97,31.81,22.38,12.13,5.42,25.51,8.12,40.14,8.12s26.91-2.63,38.61-7.9c10.53-4.97,20.33-11.41,29.39-19.3-6.73-9.06-14.77-13.6-24.13-13.6-4.68,0-9.65,1.47-14.92,4.39-3.51,2.05-8.19,3.8-14.04,5.26-4.68,1.17-9.51,1.75-14.48,1.75-10.24,0-19.67-1.97-28.3-5.92-8.63-3.95-16.16-9.28-22.59-16.01-6.14-7.02-11.04-14.98-14.7-23.91-3.66-8.92-5.48-18.65-5.48-29.17s1.82-19.89,5.48-28.96c3.65-9.06,8.62-17.03,14.92-23.91Z"/>
        <path class="cls-1" d="m790.13,125.47c-9.36-9.36-20.4-16.74-33.12-22.16-12.72-5.41-26.25-8.12-40.58-8.12s-28.23,2.71-40.8,8.12c-12.58,5.42-23.55,12.8-32.9,22.16-9.36,9.36-16.75,20.4-22.16,33.12-5.42,12.72-8.12,26.25-8.12,40.58s2.7,27.86,8.12,40.58c5.41,12.72,12.79,23.77,22.16,33.12,9.36,9.36,20.33,16.82,32.9,22.38,12.57,5.26,26.1,7.9,40.58,7.9s28-2.7,40.58-8.12c12.57-5.41,23.62-12.79,33.12-22.16,9.5-9.36,16.96-20.4,22.38-33.12,5.41-12.72,8.12-26.25,8.12-40.58s-2.71-27.86-8.12-40.58c-5.42-12.72-12.8-23.76-22.16-33.12Zm-4.39,102.66c-4.1,9.07-9.51,17.04-16.23,23.91-6.73,6.88-14.77,12.36-24.13,16.45-9.07,3.8-18.72,5.7-28.96,5.7s-19.89-1.9-28.96-5.7c-9.07-4.09-17.04-9.58-23.91-16.45-6.88-6.87-12.28-14.84-16.23-23.91-3.95-9.06-5.92-18.71-5.92-28.96s1.97-19.96,5.92-29.17c3.95-9.21,9.43-17.18,16.45-23.91,6.72-6.72,14.62-12.13,23.69-16.23,9.06-3.8,18.71-5.7,28.96-5.7s19.89,1.91,28.96,5.7c9.36,4.1,17.4,9.51,24.13,16.23,6.72,6.73,12.13,14.7,16.23,23.91,4.09,9.21,6.14,18.94,6.14,29.17s-2.05,19.89-6.14,28.96Z"/>
        <path class="cls-2" d="m1008.61,124.38c-8.77-9.21-19.02-16.38-30.71-21.5-11.7-5.11-24.28-7.68-37.73-7.68s-27.13,2.71-39.27,8.12c-12.14,5.42-22.75,12.8-31.81,22.16-9.07,9.36-16.23,20.4-21.5,33.12-5.26,12.72-7.9,26.25-7.9,40.58s2.78,27.93,8.34,40.8c5.26,12.58,12.57,23.55,21.94,32.9,9.36,9.36,20.4,16.75,33.12,22.16,12.72,5.42,26.25,8.12,40.58,8.12,11.69,0,22.52-1.69,32.47-5.05,9.94-3.36,19.15-7.97,27.64-13.82.88-.58,1.9-1.46,3.07-2.63-8.19-10.23-16.09-15.35-23.69-15.35-2.93,0-7.02,1.03-12.28,3.07l-3.51,1.32c-7.61,2.34-15.65,3.51-24.13,3.51-9.65,0-18.8-1.75-27.42-5.26-8.63-3.51-16.23-8.26-22.81-14.26-6.58-5.99-12.06-13.09-16.45-21.28-2.93-5.85-4.98-11.99-6.14-18.43l-.88-4.39h150.92c4.39,0,8.04-.73,10.97-2.19,4.09-2.04,6.14-5.99,6.14-11.85,0-14.33-2.63-27.64-7.9-39.92s-12.28-23.03-21.06-32.25Zm-122.4,59.01c-2.34,0-5.7,2.19-10.09,6.58l-6.58,6.58.44-9.65c.29-7.9,2.92-15.94,7.9-24.13,4.97-8.77,10.23-15.5,15.79-20.18,6.14-5.85,13.16-10.38,21.06-13.6,7.9-3.22,16.38-4.83,25.45-4.83,8.48,0,16.67,1.61,24.57,4.83,7.9,3.22,14.92,7.75,21.06,13.6,6.14,5.85,11.26,12.58,15.36,20.18,2.63,4.98,4.53,10.39,5.7,16.23l1.32,4.39h-121.96Z"/>
        <path class="cls-2" d="m1145.06,220.24l1.32-3.07c14.33-35.1,25.3-62.08,32.9-80.94,7.6-18.87,11.99-29.61,13.16-32.25,2.63-5.85,6.43-8.77,11.41-8.77h24.57l-85.99,204.88h-17.99l-85.99-204.88h24.13c5.26,0,8.92,2.63,10.97,7.9l47.38,114.07,13.35,27.49,10.78-24.42Z"/>
        <path class="cls-2" d="m1406.53,125.47c-9.36-9.36-20.4-16.74-33.12-22.16-12.72-5.41-26.25-8.12-40.58-8.12s-28.23,2.71-40.8,8.12c-12.58,5.42-23.55,12.8-32.9,22.16-9.36,9.36-16.75,20.4-22.16,33.12-5.42,12.72-8.12,26.25-8.12,40.58s2.7,27.86,8.12,40.58c5.41,12.72,12.79,23.77,22.16,33.12,9.36,9.36,20.33,16.82,32.9,22.38,12.57,5.26,26.1,7.9,40.58,7.9s28-2.7,40.58-8.12c12.57-5.41,23.62-12.79,33.12-22.16,9.5-9.36,16.96-20.4,22.38-33.12,5.41-12.72,8.12-26.25,8.12-40.58s-2.71-27.86-8.12-40.58c-5.42-12.72-12.8-23.76-22.16-33.12Zm-4.39,102.66c-4.1,9.07-9.51,17.04-16.23,23.91-6.73,6.88-14.77,12.36-24.13,16.45-9.07,3.8-18.72,5.7-28.96,5.7s-19.89-1.9-28.96-5.7c-9.07-4.09-17.04-9.58-23.91-16.45-6.88-6.87-12.28-14.84-16.23-23.91-3.95-9.06-5.92-18.71-5.92-28.96s1.97-19.96,5.92-29.17c3.95-9.21,9.43-17.18,16.45-23.91,6.72-6.72,14.62-12.13,23.69-16.23,9.06-3.8,18.71-5.7,28.96-5.7s19.89,1.91,28.96,5.7c9.36,4.1,17.4,9.51,24.13,16.23,6.72,6.73,12.13,14.7,16.23,23.91,4.09,9.21,6.14,18.94,6.14,29.17s-2.05,19.89-6.14,28.96Z"/>
        <path class="cls-2" d="m1465.76,300.09h9.83c11.05,0,20-8.95,20-20V0h-9.83c-11.05,0-20,8.95-20,20v280.08Z"/>
        <path class="cls-2" d="m1671.96,217.61c-.29,7.61-1.91,14.7-4.83,21.28-2.93,6.58-6.95,12.28-12.06,17.11-5.12,4.83-11.04,8.63-17.77,11.41-6.73,2.78-13.75,4.17-21.06,4.17-8.49,0-16.09-1.46-22.81-4.39-6.73-2.92-12.44-6.87-17.11-11.85-4.68-4.97-8.49-10.82-11.41-17.55-2.63-7.02-4.24-14.18-4.83-21.5v-98.67c0-12.08-9.89-21.83-21.97-21.64l-6.98.11v119.33c0,11.7,2.04,22.74,6.14,33.12,4.09,10.39,9.8,19.38,17.11,26.98,7.31,7.61,15.94,13.6,25.88,17.99,10.23,4.68,21.06,7.02,32.47,7.02,7.31,0,14.18-.88,20.62-2.63,6.43-1.75,12.43-4.24,17.99-7.46,5.26-2.92,9.94-6.43,14.04-10.53l6.58-5.7v25.88h9.89c10.53,0,19.07-8.54,19.07-19.07V95.2h-9.18c-10.92,0-19.78,8.85-19.78,19.78v102.63Z"/>
        <path class="cls-2" d="m1759,300.09h9.47V115.12c0-11-8.92-19.92-19.92-19.92h-9.47v184.96c0,11,8.92,19.92,19.92,19.92Z"/>
        <path class="cls-2" d="m1884.29,96.08c-21.35,0-36.13,10.82-44.31,32.47l-7.46-1.32v-32.03h-7.76c-11.95,0-21.63,9.69-21.63,21.63v183.25h8.73c11.88,0,21.51-9.66,21.46-21.54l-.36-102.62c0-13.45,3.36-25.15,10.09-35.1,6.73-9.94,15.79-14.92,27.2-14.92h22.81c7.31,0,15.5-6.58,24.57-19.74-8.49-6.73-19.6-10.09-33.34-10.09Z"/>
      </g>
    </g>
  </g>
</svg>